<svg width="86" height="85" viewBox="0 0 86 85" fill="none" xmlns="http://www.w3.org/2000/svg">
<g clip-path="url(#clip0_35_18)">
<g clip-path="url(#clip1_35_18)">
<path d="M43.071 0.5C24.4852 0.5 8.69948 12.5728 3.11682 29.2519H8.5001C13.866 15.4074 27.3199 5.54691 43.071 5.54691C63.5119 5.54691 80.1385 22.1222 80.1385 42.5C80.1385 62.8778 63.5119 79.4617 43.071 79.4617C27.3806 79.4617 13.9701 69.679 8.56945 55.921H3.1775C8.81218 72.5136 24.5459 84.5 43.0623 84.5C66.2945 84.5 85.1924 65.6605 85.1924 42.5C85.1924 19.3395 66.3032 0.5 43.071 0.5Z" fill="#0B1836"/>
<path d="M1.20105 32.8988H8.46545C9.65306 32.8988 10.7367 33.1235 11.6989 33.5642C12.6611 34.0136 13.4326 34.679 13.9961 35.5778C14.5596 36.4766 14.8456 37.5741 14.8456 38.8963C14.8456 40.2185 14.5596 41.3247 13.9961 42.258C13.4326 43.1914 12.6611 43.9087 11.6989 44.4012C10.7367 44.8938 9.65306 45.1445 8.46545 45.1445H6.06421V52.1185H1.20105V32.8901V32.8988ZM6.06421 41.1864H7.11312C7.59857 41.1864 8.03201 41.1173 8.40477 40.9704C8.77752 40.8235 9.08093 40.5988 9.30631 40.279C9.5317 39.9593 9.64439 39.5445 9.64439 39.0346C9.64439 38.5247 9.5317 38.0926 9.30631 37.7729C9.08093 37.4531 8.78619 37.2284 8.40477 37.0815C8.02334 36.9346 7.59857 36.8654 7.11312 36.8654H6.06421V41.1951V41.1864Z" fill="#0B1836"/>
<path d="M16.9175 32.8987H24.8494C25.9503 32.8987 26.9212 33.1407 27.7707 33.616C28.6203 34.1 29.2878 34.7827 29.7732 35.6815C30.2587 36.5716 30.5101 37.6345 30.5101 38.8703C30.5101 40.1062 30.3107 41.0913 29.9119 41.8518C29.5131 42.621 29.0277 43.1913 28.4729 43.5716C27.9094 43.9518 27.398 44.1852 26.9385 44.2889L31.3769 52.1271H25.9156L22.032 44.6864H21.7893V52.1271H16.9175V32.8987ZM21.7893 41.2123H23.0983C23.7051 41.2123 24.2512 41.0654 24.754 40.7629C25.2481 40.4605 25.4995 39.8815 25.4995 39.0259C25.4995 38.1703 25.2568 37.6086 24.7627 37.3061C24.2686 37.0037 23.7311 36.8568 23.133 36.8568H21.7806V41.2123H21.7893Z" fill="#0B1836"/>
<path d="M33.4834 42.5C33.4834 41.1 33.7261 39.7951 34.2116 38.5852C34.697 37.3753 35.3732 36.321 36.2401 35.4222C37.1069 34.5235 38.1212 33.8148 39.2914 33.3136C40.4617 32.8124 41.7274 32.5531 43.0797 32.5531C44.432 32.5531 45.7323 32.8037 46.8939 33.3136C48.0642 33.8148 49.0698 34.5235 49.9367 35.4222C50.8035 36.321 51.471 37.384 51.9478 38.5852C52.4246 39.7951 52.6586 41.1 52.6586 42.5C52.6586 43.9 52.4246 45.2136 51.9565 46.4235C51.4884 47.6333 50.8295 48.6963 49.98 49.6037C49.1218 50.5111 48.1162 51.2198 46.9373 51.721C45.7583 52.2222 44.4753 52.4815 43.071 52.4815C41.6667 52.4815 40.3057 52.2309 39.1354 51.721C37.9651 51.2111 36.9509 50.5111 36.11 49.6037C35.2692 48.6963 34.619 47.6333 34.1596 46.4235C33.7001 45.2136 33.4747 43.9087 33.4747 42.5H33.4834ZM38.5546 42.5C38.5546 43.4679 38.7453 44.3494 39.1181 45.1445C39.4995 45.9395 40.0196 46.5617 40.7045 47.0284C41.3893 47.4951 42.1781 47.7284 43.0797 47.7284C43.9812 47.7284 44.7701 47.4951 45.4549 47.0284C46.1397 46.5617 46.6599 45.9395 47.0413 45.1445C47.4141 44.3494 47.6048 43.4766 47.6048 42.5C47.6048 41.5235 47.4141 40.6506 47.0413 39.8642C46.6685 39.0778 46.1397 38.4469 45.4549 37.9803C44.7701 37.5136 43.9812 37.2716 43.0797 37.2716C42.1781 37.2716 41.3893 37.505 40.7045 37.9803C40.0196 38.4556 39.4995 39.0778 39.1181 39.8642C38.7453 40.6506 38.5546 41.5321 38.5546 42.5Z" fill="#0B1836"/>
<path d="M43.0711 10.9655C30.38 10.9655 19.4401 18.4753 14.4036 29.2519H20.0989C24.702 21.3531 33.2667 16.0124 43.0711 16.0124C57.7212 16.0124 69.6407 27.8951 69.6407 42.5C69.6407 57.105 57.7212 68.9877 43.0711 68.9877C33.3361 68.9877 24.832 63.7247 20.2029 55.9124H14.4903C19.5615 66.6025 30.4494 74.026 43.0711 74.026C60.5125 74.026 74.7033 59.879 74.7033 42.4914C74.7033 25.1037 60.5125 10.9655 43.0711 10.9655Z" fill="#0B1836"/>
<path d="M43.071 21.6988C36.6128 21.6988 30.8307 24.6371 26.9991 29.2519H34.593C37.0462 27.6877 39.9416 26.7457 43.071 26.7457C51.783 26.7457 58.8741 33.8148 58.8741 42.5C58.8741 51.1852 51.783 58.2544 43.071 58.2544C40.0716 58.2544 37.2889 57.3729 34.905 55.921H27.1552C30.9868 60.4321 36.6908 63.3013 43.071 63.3013C54.5744 63.3013 63.9366 53.9766 63.9366 42.5C63.9366 31.0235 54.583 21.6988 43.071 21.6988Z" fill="#0B1836"/>
</g>
</g>
<defs>
<clipPath id="clip0_35_18">
<rect width="85" height="85" fill="white" transform="translate(0.70105)"/>
</clipPath>
<clipPath id="clip1_35_18">
<rect width="84" height="84" fill="white" transform="translate(1.20105 0.5)"/>
</clipPath>
</defs>
</svg>
