<?xml version="1.0" encoding="UTF-8"?><svg id="Capa_2" xmlns="http://www.w3.org/2000/svg" viewBox="0 0 98 98"><defs><style>.cls-1{fill:#0b1836;}</style></defs><g id="Capa_1-2"><g id="Capa_1-3"><path class="cls-1" d="M13.46,35.2h10.01c5.87,0,10.7,2.07,10.7,8.63s-1.73,6.56-4.49,7.94l5.87,10.7h-7.25l-4.83-9.66h-3.11v9.66h-6.56v-26.92l-.35-.35ZM22.77,47.62c3.11,0,4.83-1.38,4.83-3.8s-1.73-3.45-4.83-3.45h-3.11v7.25s3.11,0,3.11,0Z"/><path class="cls-1" d="M37.61,49c0-8.97,6.21-14.15,13.11-14.15s6.9,1.73,8.63,3.45l-3.45,3.8c-1.38-1.04-2.76-1.73-5.18-1.73-4.14,0-6.9,3.11-6.9,8.28s2.42,8.63,7.59,8.63,2.07,0,2.42-.69v-4.49h-4.14v-5.18h10.01v12.77c-1.73,1.73-5.18,3.45-8.97,3.45-7.59,0-13.46-4.83-13.46-13.8l.35-.35Z"/><path class="cls-1" d="M65.56,35.2h9.32c5.52,0,10.01,1.38,10.01,6.56s-1.38,4.83-3.45,5.87h0c2.76,1.04,4.83,2.76,4.83,6.56,0,5.52-4.83,7.94-10.7,7.94h-10.35v-26.92h.35ZM74.54,45.89c2.76,0,4.14-1.04,4.14-3.11s-1.38-2.76-3.8-2.76h-2.76v5.87h2.76-.35ZM75.23,57.28c3.11,0,4.83-1.04,4.83-3.45s-1.73-3.11-4.83-3.11h-3.11v6.56h3.11Z"/><path class="cls-1" d="M49,98C22.08,98,0,75.92,0,49S21.74,0,49,0s49,22.08,49,49-22.08,49-49,49ZM49,4.14C24.15,4.14,4.14,24.15,4.14,49s20.01,44.86,44.86,44.86,44.86-20.01,44.86-44.86S73.5,4.14,49,4.14Z"/></g></g></svg>