<svg width="85" height="85" viewBox="0 0 85 85" fill="none" xmlns="http://www.w3.org/2000/svg">
<g clip-path="url(#clip0_103_2)">
<path d="M34.4685 27.4392C35.9091 26.5821 37.4845 25.9743 39.128 25.6414C40.6822 23.8435 41.9244 22.3453 43.4756 20.5475C39.5393 20.4692 35.6615 21.5082 32.2932 23.5439C29.8337 24.8614 27.6611 26.6541 25.9015 28.8177C24.142 30.9813 22.8307 33.4726 22.0439 36.1468C21.2595 38.7871 21.0199 41.5589 21.3397 44.2944C21.6595 47.0298 22.5319 49.672 23.9042 52.0608C25.4827 54.9404 27.7171 57.4089 30.427 59.2672C30.9652 57.7799 31.6966 56.3695 32.6022 55.0722C30.6919 53.828 29.1822 52.0591 28.2547 49.9783C27.1679 48.1406 26.4694 46.1002 26.2021 43.9827C25.9348 41.8653 26.1044 39.7155 26.7005 37.666C27.1388 35.4892 28.0651 33.4398 29.4099 31.6717C30.7548 29.9036 32.4832 28.4627 34.4655 27.4572M9.93143 59.5668C7.54369 55.4236 6.01018 50.8451 5.42121 46.101C4.83225 41.3568 5.19972 36.543 6.50201 31.9429C8.85709 24.2237 13.6289 17.4624 20.1165 12.652C26.604 7.84172 34.4653 5.23605 42.5454 5.21781C46.0121 5.27533 49.4569 5.77888 52.7947 6.71602C53.7278 7.01566 54.97 7.3153 55.9001 7.61494L59.6265 4.01924C57.9693 3.155 56.1895 2.54872 54.3489 2.22139C43.6813 -0.927239 32.1989 0.275626 22.4177 5.56642C12.6365 10.8572 5.3542 19.8044 2.16648 30.4476C0.608296 35.6291 0.135814 41.0756 0.778501 46.4475C1.42119 51.8193 3.16526 57.0013 5.90194 61.6703C9.77175 68.4241 15.4762 73.9465 22.356 77.5993C22.977 76.1011 23.5981 74.6028 24.2192 73.4043C18.2696 70.2073 13.3239 65.4257 9.93143 59.5908M16.4542 34.37C18.1344 28.7755 21.5879 23.8771 26.2952 20.4112C31.0025 16.9454 36.7093 15.0994 42.5575 15.1509C44.4337 15.2008 46.303 15.4012 48.1471 15.7502C49.3893 14.5517 50.6314 13.0534 51.8736 11.8549H51.5736C43.4723 9.50451 34.7716 10.4169 27.3359 14.3964C19.9002 18.376 14.3212 25.1061 11.7947 33.1444C9.90193 39.7965 10.2786 46.8884 12.8653 53.3033C15.452 59.7181 20.1018 65.0914 26.0824 68.577C26.7035 67.0788 27.3246 65.5806 27.9457 64.3821C23.0167 61.3102 19.227 56.7149 17.1528 51.295C15.0786 45.875 14.8333 39.9269 16.4542 34.355M69.2607 10.0301C68.3276 11.2286 67.7065 12.7268 66.7764 13.9254C72.2113 18.4053 76.2217 24.3693 78.3174 31.0887C80.413 37.808 80.5032 44.9915 78.5769 51.7612C75.7185 61.0556 69.361 68.88 60.8424 73.5875C52.3238 78.295 42.3088 79.5183 32.9053 77C31.9677 78.3731 30.9298 79.6751 29.7999 80.8953C30.0999 80.8953 30.733 81.195 31.042 81.195C34.7735 82.2821 38.6506 82.7874 42.5364 82.6932C51.5793 82.7594 60.4005 79.8991 67.6795 74.5402C74.9585 69.1813 80.3039 61.6121 82.9154 52.9657C85.1337 45.2603 85.0207 37.0718 82.5905 29.4304C80.1603 21.789 75.5215 15.036 69.2577 10.0211" fill="#0B1836"/>
<path d="M69.2577 2.81476C54.4014 15.42 40.8717 29.5062 28.8788 44.8545C34.0454 43.1345 39.3421 41.8319 44.7177 40.9591C37.2648 54.7726 30.1209 69.1854 22.9771 84.5001C36.8341 64.467 52.7627 45.9451 70.4999 29.2402C64.9263 28.6912 59.3175 28.591 53.7278 28.9405C58.6964 19.6307 63.9771 10.9231 69.2577 2.81476Z" fill="#0B1836"/>
</g>
<defs>
<clipPath id="clip0_103_2">
<rect width="85" height="85" fill="white"/>
</clipPath>
</defs>
</svg>
