<svg width="86" height="85" viewBox="0 0 86 85" fill="none" xmlns="http://www.w3.org/2000/svg">
<g clip-path="url(#clip0_115_407)">
<path d="M28.1222 44.829L32.1544 52.1817H27.8254L24.3086 45.1482L24.1704 44.8718H23.8614H21.5118H21.0118V45.3718V52.1817H17.0515V32.5573H23.8614C26.0366 32.5573 27.9408 32.9438 29.2886 33.8723C30.6037 34.7782 31.4545 36.2452 31.4545 38.584C31.4545 41.0499 31.1232 42.1383 30.6471 42.7466C30.4116 43.0475 30.1177 43.2608 29.7347 43.4672C29.5411 43.5716 29.331 43.6711 29.0952 43.7809C29.0654 43.7947 29.0352 43.8088 29.0046 43.823C28.7967 43.9195 28.5715 44.0241 28.337 44.1414L27.8725 44.3736L28.1222 44.829ZM20.9896 35.4733H20.4896V35.9733V41.4557V41.9557H20.9896H23.3393C24.579 41.9557 25.6182 41.6814 26.3577 41.0976C27.1146 40.5 27.4942 39.628 27.4942 38.584C27.4942 37.5338 27.1085 36.7132 26.3302 36.1807C25.5876 35.6726 24.5532 35.4733 23.3393 35.4733H20.9896Z" fill="#0B1836" stroke="#0B1836"/>
<path d="M34.9188 42.8537L35.0653 42.7072V42.5001C35.0653 35.9884 39.5407 32.2963 44.4859 32.2963C47.0721 32.2963 48.2643 32.6231 48.9605 33.0409C49.305 33.2476 49.5507 33.4899 49.7985 33.7758C49.868 33.856 49.9416 33.9448 50.0197 34.0389C50.1172 34.1566 50.2217 34.2826 50.3336 34.4105L48.3316 36.6127C47.3267 35.9254 46.2267 35.4734 44.4859 35.4734C42.7855 35.4734 41.3359 36.1159 40.3191 37.3142C39.3096 38.504 38.7645 40.196 38.7645 42.239C38.7645 44.2662 39.2366 46.0273 40.2827 47.2899C41.3415 48.5678 42.9308 49.2658 45.008 49.2658H45.0226C45.9889 49.2658 46.5805 49.2658 46.9211 49.2575C47.0841 49.2535 47.2205 49.2472 47.3163 49.2321C47.3428 49.2279 47.378 49.2213 47.416 49.2101C47.4459 49.2012 47.5194 49.1777 47.5943 49.1213C47.679 49.0574 47.8132 48.9086 47.7979 48.6787C47.7855 48.4923 47.6781 48.3791 47.6459 48.3469C47.5779 48.2789 47.4987 48.2389 47.4782 48.2286L47.4756 48.2273C47.4451 48.2118 47.4109 48.1962 47.3864 48.1851L47.382 48.1831C47.3651 48.1754 47.3497 48.1684 47.3355 48.1617V44.8497V44.3497H46.8355H44.2027V41.4337H50.7737V50.3806C49.5148 51.5473 47.1176 52.7039 44.4859 52.7039C41.7196 52.7039 39.3066 51.825 37.5883 50.1681C35.9096 48.5494 34.8494 46.1453 34.8056 42.9669L34.9188 42.8537ZM47.0217 49.1183C47.0317 49.1234 47.0293 49.123 47.0194 49.1172C47.0202 49.1176 47.021 49.118 47.0217 49.1183ZM47.2268 48.1027C47.2269 48.1027 47.2278 48.1034 47.2292 48.1046C47.2275 48.1034 47.2268 48.1027 47.2268 48.1027Z" fill="#0B1836" stroke="#0B1836"/>
<path d="M67.4973 41.0085L66.4718 41.5213L67.5454 41.9239C68.548 42.2999 69.3723 42.7825 69.9475 43.4728C70.5141 44.1527 70.8759 45.0783 70.8759 46.4161C70.8759 48.3329 70.0495 49.6799 68.7163 50.5687C67.3584 51.474 65.4441 51.9206 63.2828 51.9206H55.9507V32.5573H62.7606C64.8258 32.5573 66.6147 32.8187 67.8724 33.5074C68.4924 33.847 68.9752 34.2859 69.3057 34.8449C69.6362 35.404 69.8316 36.1125 69.8316 37.0176C69.8316 38.9685 69.5625 39.7107 69.2374 40.0822C69.0764 40.2662 68.8724 40.3937 68.5802 40.5286C68.4636 40.5824 68.3425 40.6333 68.2065 40.6904C68.1683 40.7065 68.1289 40.723 68.0881 40.7403C67.9069 40.8169 67.7076 40.9034 67.4973 41.0085ZM60.6721 35.2122H60.1721V35.7122V40.1504V40.6504H60.6721H62.4995H62.7606V40.6464C63.7372 40.6159 64.5546 40.4089 65.1492 39.963C65.8231 39.4576 66.1324 38.706 66.1324 37.8008C66.1324 36.8918 65.819 36.193 65.1592 35.7531C64.5432 35.3424 63.7012 35.2122 62.7606 35.2122H60.6721ZM60.6721 43.3054H60.1721V43.8054V48.7657V49.2657H60.6721H63.0217C64.2356 49.2657 65.27 49.0664 66.0126 48.5583C66.7909 48.0258 67.1767 47.2052 67.1767 46.155C67.1767 45.6396 67.0846 45.1805 66.8796 44.7862C66.6723 44.3875 66.3644 44.0843 65.9808 43.8622C65.2388 43.4326 64.2094 43.3054 63.0217 43.3054H60.6721Z" fill="#0B1836" stroke="#0B1836"/>
<path d="M0.84375 42.5C0.84375 65.7085 19.8853 84.75 43.0937 84.75C66.3022 84.75 85.3438 65.7085 85.3438 42.5C85.3438 19.2927 66.5992 0.25 43.0937 0.25C19.5883 0.25 0.84375 19.2927 0.84375 42.5ZM4.89305 42.5C4.89305 21.3423 21.936 4.2993 43.0937 4.2993C63.9569 4.2993 81.2944 21.3435 81.2944 42.5C81.2944 63.6577 64.2514 80.7007 43.0937 80.7007C21.936 80.7007 4.89305 63.6577 4.89305 42.5Z" fill="#0B1836" stroke="#0B1836" stroke-width="0.5"/>
</g>
<defs>
<clipPath id="clip0_115_407">
<rect width="85" height="85" fill="white" transform="translate(0.59375)"/>
</clipPath>
</defs>
</svg>
