<?xml version="1.0" encoding="UTF-8"?>
<svg xmlns="http://www.w3.org/2000/svg" version="1.1" viewBox="0 0 32 32">
  <defs>
    <style>
      .cls-1 {
        stroke-width: .5px;
      }

      .cls-1, .cls-2 {
        fill: #44d62c;
        stroke: #44d62c;
        stroke-miterlimit: 10;
      }

      .cls-2 {
        stroke-width: .2px;
      }
    </style>
  </defs>
  <!-- Generator: Adobe Illustrator 28.6.0, SVG Export Plug-In . SVG Version: 1.2.0 Build 709)  -->
  <g>
    <g id="Layer_2">
      <g>
        <rect class="cls-1" x="2.9" y="15.7" width="12.7" height=".7"/>
        <path class="cls-1" d="M16.9,21.1c-2.8,0-5-2.3-5-5s2.3-5,5-5,2.6.5,3.6,1.5h1s0,0-.1-.1c-1.1-1.3-2.7-2.1-4.5-2.1-3.2,0-5.8,2.6-5.8,5.8s2.6,5.8,5.8,5.8,3.5-.9,4.5-2.2h-1c-.9.9-2.2,1.5-3.6,1.5h0Z"/>
        <path class="cls-2" d="M17.6,17v1.4h-.9v-4.7h1.7c1.1,0,1.6.5,1.6,1.6s-.6,1.7-1.6,1.7h-.8ZM17.6,16.2h.7c.5,0,.7-.3.7-.9s-.2-.8-.7-.8h-.7v1.7Z"/>
        <path class="cls-2" d="M22.9,16.8h-.9v1.6h-.9v-4.7h1.8c1,0,1.6.5,1.6,1.5s-.3,1.1-.7,1.3l.7,1.8h-1l-.5-1.6h0ZM22.8,14.5h-.9v1.5h.9c.5,0,.7-.3.7-.7s-.2-.7-.7-.7"/>
        <path class="cls-2" d="M25.3,16.1c0-1.6.5-2.5,1.9-2.5s1.9.9,1.9,2.5-.5,2.3-1.9,2.3-1.9-.8-1.9-2.3M28.2,16.1c0-1.1-.2-1.7-.9-1.7s-.9.6-.9,1.7.2,1.5.9,1.5.9-.5.9-1.5"/>
        <rect class="cls-1" x="16.5" y="19.6" width=".7" height="10.4"/>
        <rect class="cls-1" x="16.5" y="2" width=".7" height="10.4"/>
        <path class="cls-1" d="M16.9,27.2c-6.2,0-11.2-5-11.2-11.2s5-11.2,11.2-11.2,9.2,3.2,10.6,7.7h1.1c-1.5-5-6.2-8.7-11.7-8.7S4.6,9.3,4.6,16s5.5,12.2,12.2,12.2,10.1-3.6,11.7-8.6h-1.1c-1.5,4.4-5.7,7.6-10.6,7.6h0Z"/>
      </g>
    </g>
  </g>
</svg>