<?xml version="1.0" encoding="UTF-8"?><svg id="Capa_2" xmlns="http://www.w3.org/2000/svg" viewBox="0 0 98.75 98.89"><defs><style>.cls-1{fill:#0b1836;}</style></defs><g id="Capa_2-2"><g id="Layer_2"><path class="cls-1" d="M39.93,31.72c1.69-1.01,3.55-1.72,5.48-2.12,1.83-2.12,3.29-3.88,5.11-6-4.63-.09-9.19,1.13-13.15,3.53-5.84,3.13-10.18,8.48-12.05,14.84-1.86,6.28-1.07,13.05,2.19,18.73,1.86,3.39,4.48,6.3,7.67,8.48.63-1.75,1.49-3.41,2.56-4.94-2.25-1.46-4.02-3.55-5.11-6-2.58-4.37-3.24-9.62-1.83-14.49,1.04-5.19,4.41-9.62,9.13-12.02M11.09,69.54c-5.67-9.85-7.12-21.58-4.03-32.52C12.74,18.37,29.93,5.61,49.43,5.57c4.08.07,8.13.66,12.05,1.76,1.1.35,2.56.71,3.65,1.06l4.38-4.23c-1.95-1.02-4.04-1.73-6.2-2.12C37.19-5.68,9.76,9.18,1.96,35.27-1.74,47.59-.15,60.91,6.35,72.02c4.55,7.95,11.26,14.45,19.34,18.75.73-1.76,1.46-3.53,2.19-4.94-6.99-3.76-12.81-9.39-16.8-16.26M18.76,39.88c4.06-13.53,16.56-22.75,30.69-22.62,2.21.06,4.4.29,6.57.71,1.46-1.41,2.92-3.17,4.38-4.59h-.35c-19.81-5.75-40.59,5.38-46.76,25.06-4.58,16.11,2.33,33.27,16.8,41.71.73-1.76,1.46-3.53,2.19-4.94-11.91-7.43-17.42-21.87-13.51-35.35M80.83,11.23c-1.1,1.41-1.83,3.17-2.92,4.59,13.06,10.78,18.5,28.25,13.87,44.54-6.98,22.74-30.71,35.87-53.69,29.71-1.1,1.62-2.32,3.15-3.65,4.59.35,0,1.1.35,1.46.35,4.39,1.28,8.94,1.87,13.51,1.76,21.83.16,41.16-14.09,47.47-34.99,5.33-18.55-1-38.48-16.06-50.55"/><path class="cls-1" d="M80.83,2.74c-17.46,14.84-33.37,31.42-47.47,49.49,6.07-2.02,12.3-3.56,18.62-4.59-8.76,16.26-17.16,33.23-25.56,51.25,16.29-23.58,35.02-45.38,55.87-65.05-6.55-.65-13.15-.76-19.72-.35,5.84-10.96,12.05-21.21,18.26-30.75"/></g></g></svg>