<?xml version="1.0" encoding="UTF-8"?>
<svg xmlns="http://www.w3.org/2000/svg" version="1.1" xmlns:xlink="http://www.w3.org/1999/xlink" viewBox="0 0 32 32">
  <defs>
    <style>
      .cls-1 {
        fill: #0b1836;
      }

      .cls-2 {
        stroke-width: .2px;
      }

      .cls-2, .cls-3 {
        fill: #44d62c;
        stroke: #44d62c;
      }

      .cls-2, .cls-3, .cls-4 {
        stroke-miterlimit: 10;
      }

      .cls-5 {
        fill: #f9f9f9;
      }

      .cls-3 {
        stroke-width: .5px;
      }

      .cls-6 {
        display: none;
      }

      .cls-4 {
        fill: none;
        stroke: #000;
        stroke-width: 1.7px;
      }
    </style>
  </defs>
  <!-- Generator: Adobe Illustrator 28.6.0, SVG Export Plug-In . SVG Version: 1.2.0 Build 709)  -->
  <g>
    <g id="Capa_1" class="cls-6">
      <g class="cls-6">
        <g id="Layer_2">
          <g>
            <rect class="cls-3" x="2.9" y="15.7" width="12.7" height=".7"/>
            <path class="cls-3" d="M16.9,21.1c-2.8,0-5-2.3-5-5s2.3-5,5-5,2.6.5,3.6,1.5h1-.1c-1.1-1.4-2.7-2.2-4.5-2.2-3.2,0-5.8,2.6-5.8,5.8s2.6,5.8,5.8,5.8,3.5-.9,4.5-2.2h-1c-.9.9-2.2,1.5-3.6,1.5h0v-.2Z"/>
            <path class="cls-2" d="M17.6,17v1.4h-.9v-4.7h1.7c1.1,0,1.6.5,1.6,1.6s-.6,1.7-1.6,1.7h-.8ZM17.6,16.2h.7c.5,0,.7-.3.7-.9s-.2-.8-.7-.8h-.7v1.7Z"/>
            <path class="cls-2" d="M22.9,16.8h-.9v1.6h-.9v-4.7h1.8c1,0,1.6.5,1.6,1.5s-.3,1.1-.7,1.3l.7,1.8h-1l-.5-1.6h-.1ZM22.8,14.5h-.9v1.5h.9c.5,0,.7-.3.7-.7s-.2-.7-.7-.7"/>
            <path class="cls-2" d="M25.3,16.1c0-1.6.5-2.5,1.9-2.5s1.9.9,1.9,2.5-.5,2.3-1.9,2.3-1.9-.8-1.9-2.3M28.2,16.1c0-1.1-.2-1.7-.9-1.7s-.9.6-.9,1.7.2,1.5.9,1.5.9-.5.9-1.5"/>
            <rect class="cls-3" x="16.5" y="19.6" width=".7" height="10.4"/>
            <rect class="cls-3" x="16.5" y="2" width=".7" height="10.4"/>
            <path class="cls-3" d="M16.9,27.2c-6.2,0-11.2-5-11.2-11.2s5-11.2,11.2-11.2,9.2,3.2,10.6,7.7h1.1c-1.5-5-6.2-8.7-11.7-8.7s-12.3,5.5-12.3,12.2,5.5,12.2,12.2,12.2,10.1-3.6,11.7-8.6h-1.1c-1.5,4.4-5.7,7.6-10.6,7.6h.1Z"/>
          </g>
        </g>
      </g>
      <circle class="cls-4" cx="15.9" cy="16" r="13.1"/>
      <circle class="cls-4" cx="15.9" cy="16" r="6.1"/>
      <circle class="cls-4" cx="15.9" cy="16" r="9.7"/>
      <rect class="cls-5" x=".3" y="11.6" width="16.8" height="8.9"/>
      <g>
        <path d="M2,12.8h2.4c.4,0,.8,0,1.1.2.3.1.6.4.8.7s.3.7.3,1.1,0,.8-.3,1.1-.4.5-.8.7c-.3.2-.7.2-1.1.2h-.8v2.3h-1.6v-6.4ZM3.6,15.5h.3c.2,0,.3,0,.4,0s.2-.1.3-.2.1-.2.1-.4,0-.3-.1-.4-.2-.2-.3-.2-.3,0-.4,0h-.3v1.4Z"/>
        <path d="M7.2,12.8h2.6c.4,0,.7,0,1,.2.3.2.5.4.7.7.2.3.2.7.2,1.1s0,.7-.2,1c-.1.3-.3.4-.5.6-.2.1-.4.2-.5.2l1.5,2.6h-1.8l-1.3-2.5h0v2.5h-1.6v-6.4ZM8.8,15.5h.4c.2,0,.4,0,.5-.2.2-.1.2-.3.2-.6s0-.5-.2-.6-.3-.2-.5-.2h-.4v1.4Z"/>
        <path d="M12.7,16c0-.5,0-.9.2-1.3.2-.4.4-.8.7-1.1s.6-.5,1-.7.8-.3,1.3-.3.9,0,1.3.3c.4.2.7.4,1,.7s.5.7.7,1.1c.2.4.2.8.2,1.3s0,.9-.2,1.3c-.2.4-.4.8-.7,1.1-.3.3-.6.5-1,.7-.4.2-.8.3-1.3.3s-.9,0-1.3-.3-.7-.4-1-.7c-.3-.3-.5-.7-.6-1.1-.2-.4-.2-.8-.2-1.3ZM14.4,16c0,.3,0,.6.2.9.1.3.3.5.5.6s.5.2.8.2.6,0,.8-.2.4-.4.5-.6c.1-.3.2-.6.2-.9s0-.6-.2-.9-.3-.5-.5-.6-.5-.2-.8-.2-.6,0-.8.2-.4.4-.5.6c-.1.3-.2.6-.2.9Z"/>
      </g>
      <image width="90" height="90" transform="translate(-36.9) scale(.4)" xlink:href="mc0039-hyperspeed-wireless.png"/>
    </g>
    <g id="Capa_2">
      <path class="cls-1" d="M15.9,2C9.7,2,4.5,6,2.6,11.6h1.8c1.8-4.6,6.2-7.9,11.5-7.9s12.3,5.5,12.3,12.3-5.5,12.3-12.3,12.3-9.7-3.3-11.4-7.8h-1.8c1.9,5.5,7.1,9.5,13.2,9.5s14-6.3,14-14S23.6,2,15.9,2Z"/>
      <g>
        <path class="cls-1" d="M2,12.8h2.4c.4,0,.8,0,1.1.2.3.1.6.4.8.7s.3.7.3,1.1,0,.8-.3,1.1-.4.5-.8.7c-.3.2-.7.2-1.1.2h-.8v2.3h-1.6v-6.4ZM3.6,15.5h.3c.2,0,.3,0,.4,0s.2-.1.3-.2.1-.2.1-.4,0-.3-.1-.4-.2-.2-.3-.2-.3,0-.4,0h-.3v1.4Z"/>
        <path class="cls-1" d="M7.2,12.8h2.6c.4,0,.7,0,1,.2.3.2.5.4.7.7.2.3.2.7.2,1.1s0,.7-.2,1c-.1.3-.3.4-.5.6-.2.1-.4.2-.5.2l1.5,2.6h-1.8l-1.3-2.5h0v2.5h-1.6v-6.4ZM8.8,15.5h.4c.2,0,.4,0,.5-.2.2-.1.2-.3.2-.6s0-.5-.2-.6-.3-.2-.5-.2h-.4v1.4Z"/>
        <path class="cls-1" d="M12.7,16c0-.5,0-.9.2-1.3.2-.4.4-.8.7-1.1s.6-.5,1-.7.8-.3,1.3-.3.9,0,1.3.3c.4.2.7.4,1,.7s.5.7.7,1.1c.2.4.2.8.2,1.3s0,.9-.2,1.3c-.2.4-.4.8-.7,1.1-.3.3-.6.5-1,.7-.4.2-.8.3-1.3.3s-.9,0-1.3-.3-.7-.4-1-.7c-.3-.3-.5-.7-.6-1.1-.2-.4-.2-.8-.2-1.3ZM14.4,16c0,.3,0,.6.2.9.1.3.3.5.5.6s.5.2.8.2.6,0,.8-.2.4-.4.5-.6c.1-.3.2-.6.2-.9s0-.6-.2-.9-.3-.5-.5-.6-.5-.2-.8-.2-.6,0-.8.2-.4.4-.5.6c-.1.3-.2.6-.2.9Z"/>
      </g>
      <path class="cls-1" d="M15.9,5.5c-4.2,0-7.8,2.5-9.5,6.1h1.9c1.5-2.6,4.4-4.4,7.6-4.4,4.9,0,8.8,4,8.8,8.8s-4,8.8-8.8,8.8-6.1-1.8-7.6-4.3h-1.9c1.7,3.6,5.3,6,9.5,6s10.5-4.7,10.5-10.5-4.7-10.5-10.5-10.5Z"/>
      <path class="cls-1" d="M15.9,9c-2.1,0-4.1,1-5.3,2.5h2.5c.8-.5,1.8-.8,2.8-.8,2.9,0,5.2,2.4,5.2,5.2s-2.4,5.2-5.2,5.2-1.9-.3-2.7-.8h-2.6c1.3,1.5,3.2,2.5,5.3,2.5,3.8,0,6.9-3.1,6.9-6.9s-3.1-6.9-6.9-6.9Z"/>
      <g>
        <path class="cls-1" d="M-61.4,9.7c-21.4,0-39.6,14-46.1,33.3h6.2c6.2-16,21.7-27.4,39.9-27.4S-18.6,34.7-18.6,58.3s-19.2,42.8-42.8,42.8-33.6-11.3-39.8-27.2h-6.2c6.5,19.2,24.6,33.1,46,33.1S-12.8,85.1-12.8,58.3-34.6,9.7-61.4,9.7Z"/>
        <g>
          <path class="cls-1" d="M-109.7,47.2h8.4c1.4,0,2.6.3,3.7.8,1.1.5,2,1.3,2.7,2.3s1,2.3,1,3.8-.3,2.8-1,3.9-1.5,1.9-2.7,2.5c-1.1.6-2.4.9-3.7.9h-2.8v8.1h-5.6v-22.2ZM-104.1,56.8h1.2c.6,0,1.1,0,1.5-.3s.8-.4,1-.8.4-.8.4-1.4-.1-1.1-.4-1.5-.6-.6-1-.8-.9-.3-1.5-.3h-1.2v5Z"/>
          <path class="cls-1" d="M-91.6,47.2h9.2c1.3,0,2.4.3,3.4.8,1,.6,1.7,1.4,2.3,2.4.6,1,.8,2.3.8,3.7s-.2,2.6-.7,3.5c-.5.9-1,1.6-1.7,2-.6.4-1.2.7-1.8.8l5.1,9.1h-6.3l-4.5-8.6h-.3v8.6h-5.6v-22.2ZM-85.9,56.8h1.5c.7,0,1.3-.2,1.9-.5.6-.3.9-1,.9-2s-.3-1.6-.8-2-1.2-.5-1.9-.5h-1.6v5Z"/>
          <path class="cls-1" d="M-72.5,58.3c0-1.6.3-3.1.8-4.5.6-1.4,1.3-2.6,2.3-3.7s2.2-1.9,3.5-2.4,2.8-.9,4.4-.9,3.1.3,4.4.9c1.3.6,2.5,1.4,3.5,2.4s1.8,2.3,2.3,3.7c.6,1.4.8,2.9.8,4.5s-.3,3.1-.8,4.5c-.5,1.4-1.3,2.6-2.3,3.7-1,1-2.2,1.9-3.5,2.5-1.4.6-2.8.9-4.5.9s-3.2-.3-4.5-.9-2.5-1.4-3.5-2.5c-1-1-1.7-2.3-2.2-3.7-.5-1.4-.8-2.9-.8-4.5ZM-66.6,58.3c0,1.1.2,2.1.7,3.1.4.9,1,1.6,1.8,2.2s1.7.8,2.7.8,2-.3,2.7-.8,1.4-1.3,1.8-2.2c.4-.9.7-1.9.7-3.1s-.2-2.1-.7-3.1-1-1.6-1.8-2.2-1.7-.8-2.7-.8-2,.3-2.7.8-1.4,1.3-1.8,2.2c-.4.9-.7,1.9-.7,3.1Z"/>
        </g>
        <path class="cls-1" d="M-61.4,21.8c-14.6,0-27.3,8.7-33.1,21.2h6.6c5.3-9.1,15.2-15.3,26.5-15.3,16.9,0,30.7,13.7,30.7,30.7s-13.7,30.7-30.7,30.7-21-6.1-26.4-15.1h-6.6c5.8,12.4,18.4,21,33,21s36.5-16.4,36.5-36.5S-41.3,21.8-61.4,21.8Z"/>
        <path class="cls-1" d="M-61.4,34.2c-7.4,0-14.1,3.4-18.5,8.7h8.8c2.8-1.8,6.2-2.9,9.8-2.9,10.1,0,18.2,8.2,18.2,18.2s-8.2,18.2-18.2,18.2-6.7-1-9.4-2.7h-8.9c4.4,5.2,11,8.5,18.4,8.5,13.3,0,24.1-10.8,24.1-24.1s-10.8-24.1-24.1-24.1Z"/>
      </g>
    </g>
  </g>
</svg>