<?xml version="1.0" encoding="UTF-8"?>
<svg xmlns="http://www.w3.org/2000/svg" version="1.1" viewBox="0 0 96.9 97.2">
  <defs>
    <style>
      .cls-1 {
        fill: #0b1836;
      }

      .cls-2 {
        fill: #44d62c;
      }
    </style>
  </defs>
  <!-- Generator: Adobe Illustrator 28.6.0, SVG Export Plug-In . SVG Version: 1.2.0 Build 709)  -->
  <g>
    <g id="Capa_2">
      <g id="Capa_2-2">
        <path class="cls-1" d="M48.3,0C26.9,0,8.6,14,2.2,33.3h6.2C14.6,17.3,30.1,5.8,48.3,5.8s42.8,19.2,42.8,42.8-19.2,42.8-42.8,42.8-33.6-11.3-39.8-27.2H2.3c6.5,19.2,24.7,33.1,46,33.1s48.6-21.8,48.6-48.6S75.1,0,48.3,0Z"/>
        <path class="cls-1" d="M0,37.5h8.4c1.4,0,2.6.3,3.7.8,1.1.5,2,1.3,2.6,2.3s1,2.3,1,3.8-.3,2.8-1,3.9-1.5,1.9-2.6,2.5-2.4.9-3.7.9h-2.8v8.1H0v-22.2h0ZM5.6,47.1h1.2c.6,0,1.1,0,1.5-.2s.8-.4,1-.8.4-.8.4-1.4-.1-1.1-.4-1.5-.6-.6-1-.8-.9-.2-1.5-.2h-1.2v5h0Z"/>
        <path class="cls-1" d="M18.1,37.5h9.1c1.3,0,2.4.3,3.4.8,1,.6,1.8,1.3,2.3,2.4.6,1,.8,2.3.8,3.7s-.2,2.6-.7,3.5c-.5.9-1,1.5-1.7,2-.6.4-1.2.7-1.8.8l5.1,9.1h-6.3l-4.5-8.6h-.3v8.6h-5.6s0-22.2,0-22.3ZM23.8,47.1h1.5c.7,0,1.3-.2,1.9-.5.6-.3.9-1,.9-2s-.3-1.6-.9-2-1.2-.5-1.9-.5h-1.6v5h0Z"/>
        <path class="cls-1" d="M37.2,48.6c0-1.6.3-3.1.8-4.5.6-1.4,1.3-2.6,2.3-3.7s2.2-1.9,3.5-2.4,2.8-.9,4.4-.9,3.1.3,4.4.9c1.3.6,2.5,1.4,3.5,2.4s1.8,2.3,2.3,3.7c.5,1.4.8,2.9.8,4.5s-.3,3.1-.8,4.5-1.3,2.6-2.3,3.7c-1,1-2.2,1.9-3.5,2.5-1.4.6-2.8.9-4.5.9s-3.2-.3-4.5-.9-2.5-1.4-3.5-2.5-1.7-2.3-2.2-3.7-.8-2.9-.8-4.5h0ZM43.1,48.6c0,1.1.2,2.1.7,3.1.4.9,1,1.6,1.8,2.2s1.7.8,2.7.8,2-.3,2.7-.8,1.4-1.3,1.8-2.2c.4-.9.7-1.9.7-3.1s-.2-2.1-.7-3-1-1.6-1.8-2.2-1.7-.8-2.7-.8-2,.3-2.7.8-1.4,1.3-1.8,2.2c-.4.9-.7,1.9-.7,3Z"/>
        <path class="cls-1" d="M48.3,12.1c-14.6,0-27.3,8.7-33.1,21.2h6.6c5.3-9.1,15.2-15.3,26.5-15.3,16.9,0,30.6,13.8,30.6,30.6s-13.8,30.7-30.7,30.7-21-6.1-26.4-15.1h-6.6c5.9,12.4,18.4,21,33,21s36.5-16.4,36.5-36.5S68.4,12.1,48.3,12.1Z"/>
        <path class="cls-1" d="M48.3,24.5c-7.5,0-14.1,3.4-18.5,8.7h8.8c2.8-1.8,6.2-2.9,9.8-2.9,10,0,18.2,8.2,18.2,18.2s-8.2,18.2-18.2,18.2-6.7-1-9.4-2.7h-8.9c4.4,5.2,11,8.5,18.4,8.5,13.3,0,24.1-10.8,24.1-24.1s-10.8-24.1-24.1-24.1Z"/>
      </g>
      <g id="Layer_2">
        <g>
          <path class="cls-2" d="M39,31.8c1.7-1,3.5-1.7,5.4-2.1,1.8-2.1,3.2-3.9,5-6-4.6,0-9,1.1-12.9,3.5-5.7,3.1-10,8.5-11.9,14.9-1.8,6.3-1.1,13.1,2.2,18.8,1.8,3.4,4.4,6.3,7.5,8.5.6-1.8,1.5-3.4,2.5-5-2.2-1.5-4-3.6-5-6-2.5-4.4-3.2-9.7-1.8-14.5,1-5.2,4.3-9.7,9-12.1M10.6,69.8c-5.6-9.9-7-21.7-4-32.6C12.2,18.4,29.2,5.6,48.3,5.6c4,0,8,.7,11.9,1.8,1.1.4,2.5.7,3.6,1.1l4.3-4.2c-1.9-1-4-1.7-6.1-2.1C36.3-5.7,9.3,9.2,1.6,35.4c-3.6,12.4-2.1,25.7,4.3,36.9,4.5,8,11.1,14.5,19,18.8.7-1.8,1.4-3.5,2.2-5-6.9-3.8-12.6-9.4-16.5-16.3M18.2,40c4-13.6,16.3-22.8,30.2-22.7,2.2,0,4.3.3,6.5.7,1.4-1.4,2.9-3.2,4.3-4.6h-.3c-19.5-5.8-39.9,5.4-46,25.1-4.5,16.2,2.3,33.4,16.5,41.9.7-1.8,1.4-3.5,2.2-5-11.7-7.5-17.1-21.9-13.3-35.5M79.3,11.3c-1.1,1.4-1.8,3.2-2.9,4.6,12.8,10.8,18.2,28.4,13.7,44.7-6.9,22.8-30.2,36-52.8,29.8-1.1,1.6-2.3,3.2-3.6,4.6.3,0,1.1.4,1.4.4,4.3,1.3,8.8,1.9,13.3,1.8,21.5.2,40.5-14.1,46.7-35.1,5.2-18.6-1-38.6-15.8-50.7"/>
          <path class="cls-2" d="M79.2,2.7c-17.2,14.9-32.8,31.5-46.7,49.7,6-2,12.1-3.6,18.3-4.6-8.6,16.3-16.9,33.3-25.1,51.4,16-23.7,34.5-45.5,55-65.3-6.4-.6-12.9-.8-19.4-.4,5.7-11,11.9-21.3,18-30.9"/>
        </g>
      </g>
    </g>
  </g>
</svg>