<?xml version="1.0" encoding="UTF-8"?>
<svg xmlns="http://www.w3.org/2000/svg" version="1.1" viewBox="0 0 32 32">
  <defs>
    <style>
      .cls-1 {
        fill: #44d62c;
      }
    </style>
  </defs>
  <!-- Generator: Adobe Illustrator 28.6.0, SVG Export Plug-In . SVG Version: 1.2.0 Build 709)  -->
  <g>
    <g id="Capa_1">
      <g>
        <g>
          <path class="cls-1" d="M16,4.4c6.4,0,11.7,4.7,12.4,10.8h1.5c-.7-6.9-6.7-12.2-13.9-12.2S2.8,8.3,2.1,15.2h1.5c.7-6.1,6-10.8,12.4-10.8Z"/>
          <path class="cls-1" d="M16,7.8c4.5,0,8.3,3.2,9,7.4h1.5c-.7-5-5.1-8.9-10.5-8.9s-9.7,3.9-10.5,8.9h1.5c.7-4.2,4.5-7.4,9-7.4Z"/>
          <path class="cls-1" d="M16,10.9c2.8,0,5.1,1.8,5.7,4.3h1.5c-.7-3.3-3.7-5.8-7.2-5.8s-6.6,2.5-7.2,5.8h1.5c.7-2.5,3-4.3,5.7-4.3Z"/>
        </g>
        <path class="cls-1" d="M30,16.6h-9.8c0-2.2-1.9-4.1-4.2-4.1s-4.2,1.8-4.2,4.1H2c0,3.3,1.2,6.3,3.2,8.6h0s0,0,0,0c1,1.1,2.1,2.1,3.4,2.9h0s0,0,0,0c.5.3.9.5,1.4.8v-1.6s0,0,0,0v-3.5h-4.2c-1.3-1.7-2.1-3.6-2.3-5.8h24.9c-.3,2.1-1.1,4.1-2.3,5.8h-4.2v4.4h0v.7c.5-.2.9-.5,1.4-.7h0c4-2.4,6.6-6.7,6.6-11.6Z"/>
      </g>
    </g>
  </g>
</svg>