<?xml version="1.0" encoding="UTF-8"?>
<svg xmlns="http://www.w3.org/2000/svg" version="1.1" viewBox="0 0 32 32">
  <defs>
    <style>
      .cls-1 {
        fill: #0b1836;
      }
    </style>
  </defs>
  <!-- Generator: Adobe Illustrator 28.6.0, SVG Export Plug-In . SVG Version: 1.2.0 Build 709)  -->
  <g>
    <g id="Capa_1">
      <g id="Layer_2">
        <g>
          <path class="cls-1" d="M13.3,11c.5-.3,1-.5,1.6-.6.5-.6.9-1.1,1.4-1.7-1.3,0-2.6.3-3.7,1-1.7.9-2.9,2.4-3.4,4.2-.5,1.8-.3,3.7.6,5.3.5,1,1.3,1.8,2.2,2.4.2-.5.4-1,.7-1.4-.6-.4-1.1-1-1.4-1.7-.7-1.2-.9-2.7-.5-4.1.3-1.5,1.2-2.7,2.6-3.4M5.1,21.7c-1.6-2.8-2-6.1-1.1-9.2,1.6-5.3,6.5-8.9,12-8.9,1.2,0,2.3.2,3.4.5.3,0,.7.2,1,.3l1.2-1.2c-.6-.3-1.1-.5-1.8-.6C12.5.4,4.8,4.6,2.6,12c-1,3.5-.6,7.3,1.2,10.4,1.3,2.3,3.2,4.1,5.5,5.3.2-.5.4-1,.6-1.4-2-1.1-3.6-2.7-4.8-4.6M7.3,13.3c1.2-3.8,4.7-6.4,8.7-6.4.6,0,1.2,0,1.9.2.4-.4.8-.9,1.2-1.3h-.1c-5.6-1.6-11.5,1.5-13.3,7.1-1.3,4.6.7,9.4,4.8,11.8.2-.5.4-1,.6-1.4-3.4-2.1-4.9-6.2-3.8-10M24.9,5.1c-.3.4-.5.9-.8,1.3,3.7,3.1,5.2,8,3.9,12.6-2,6.4-8.7,10.2-15.2,8.4-.3.5-.7.9-1,1.3.1,0,.3.1.4.1,1.2.4,2.5.5,3.8.5,6.2,0,11.7-4,13.5-9.9,1.5-5.3-.3-10.9-4.6-14.3"/>
          <path class="cls-1" d="M24.9,2.7c-5,4.2-9.5,8.9-13.5,14,1.7-.6,3.5-1,5.3-1.3-2.5,4.6-4.9,9.4-7.2,14.5,4.6-6.7,9.9-12.9,15.8-18.4-1.9-.2-3.7-.2-5.6-.1,1.7-3.1,3.4-6,5.2-8.7"/>
        </g>
      </g>
    </g>
  </g>
</svg>